<svg  viewBox="0 0 242 90" xmlns="http://www.w3.org/2000/svg" data-logo="logo" className="voca-logo" >
        <g transform="translate(0, 1) rotate(0)" id="logogram" style="opacity: 1;"><path fill="#297AFF" d="M33.724 36.5809C37.7426 32.5622 40.0003 27.1118 40.0003 21.4286C40.0003 15.7454 37.7426 10.2949 33.724 6.27629C29.7054 2.25765 24.2549 1.02188e-06 18.5717 0C12.8885 -1.02188e-06 7.43807 2.25764 3.41943 6.27628L10.4905 13.3473C11.6063 14.4631 13.4081 14.4074 14.8276 13.7181C15.9836 13.1568 17.2622 12.8571 18.5717 12.8571C20.845 12.8571 23.0252 13.7602 24.6326 15.3677C26.2401 16.9751 27.1431 19.1553 27.1431 21.4286C27.1431 22.7381 26.8435 24.0167 26.2822 25.1727C25.5929 26.5922 25.5372 28.394 26.6529 29.5098L33.724 36.5809Z"></path><path fill="#34C2FF" d="M30 40H19.5098C17.9943 40 16.5408 39.398 15.4692 38.3263L1.67368 24.5308C0.60204 23.4592 0 22.0057 0 20.4902V10L30 40Z"></path><path fill="#34C2FF" d="M10.7143 39.9999H4.28571C1.91878 39.9999 0 38.0812 0 35.7142V29.2856L10.7143 39.9999Z"></path></g>
        <g transform="translate(46, 7.5)" id="logotype" style="opacity: 1;"><path d="M22.14 26L16.22 26L6.67 2.90L11.88 2.90L19.16 21.20L26.51 2.90L31.69 2.90L22.14 26ZM40.16 26.45L40.16 26.45Q37.05 26.45 34.96 25.27Q32.88 24.07 31.85 21.99Q30.81 19.91 30.81 17.25L30.81 17.25Q30.81 14.62 31.85 12.54Q32.88 10.46 34.96 9.25Q37.05 8.04 40.16 8.04L40.16 8.04Q43.24 8.04 45.32 9.25Q47.41 10.46 48.42 12.54Q49.44 14.62 49.44 17.25L49.44 17.25Q49.44 19.91 48.42 21.99Q47.41 24.07 45.32 25.27Q43.24 26.45 40.16 26.45ZM40.16 22.32L40.16 22.32Q41.66 22.32 42.70 21.77Q43.73 21.20 44.24 20.09Q44.75 18.96 44.75 17.25L44.75 17.25Q44.75 15.57 44.24 14.45Q43.73 13.33 42.70 12.75Q41.66 12.17 40.16 12.17L40.16 12.17Q38.62 12.17 37.59 12.75Q36.55 13.33 36.03 14.45Q35.51 15.57 35.51 17.25L35.51 17.25Q35.51 18.96 36.03 20.09Q36.55 21.20 37.59 21.77Q38.62 22.32 40.16 22.32ZM69.81 13.50L65.11 14.27Q64.55 13.33 63.59 12.75Q62.63 12.17 61.23 12.17L61.23 12.17Q59.86 12.17 58.87 12.77Q57.87 13.36 57.34 14.50Q56.82 15.64 56.82 17.25L56.82 17.25Q56.82 19.70 57.99 21.01Q59.16 22.32 61.23 22.32L61.23 22.32Q62.63 22.32 63.59 21.77Q64.55 21.20 65.11 20.26L65.11 20.26L69.88 20.93Q69.31 22.54 68.16 23.78Q67.00 25.02 65.27 25.74Q63.54 26.45 61.23 26.45L61.23 26.45Q58.22 26.45 56.21 25.27Q54.20 24.07 53.16 21.99Q52.13 19.91 52.13 17.25L52.13 17.25Q52.13 14.62 53.16 12.54Q54.20 10.46 56.21 9.25Q58.22 8.04 61.23 8.04L61.23 8.04Q63.54 8.04 65.25 8.74Q66.97 9.44 68.11 10.69Q69.25 11.93 69.81 13.50L69.81 13.50ZM78.66 26.45L78.66 26.45Q76.42 26.45 74.99 25.70Q73.55 24.95 72.89 23.73Q72.22 22.50 72.22 21.03L72.22 21.03L72.22 20.50Q72.22 19.59 72.62 18.51Q73.03 17.42 74.15 16.57Q75.27 15.71 77.44 15.50L77.44 15.50L81.57 15.08Q83.18 14.90 83.68 14.71Q84.19 14.52 84.19 13.96L84.19 13.96Q84.19 12.77 83.28 12.38Q82.37 12.00 80.69 12.00L80.69 12.00Q79.68 12.00 78.85 12.16Q78.03 12.31 77.49 12.68Q76.95 13.05 76.77 13.75L76.77 13.75L72.40 12.70Q72.78 11.40 73.66 10.51Q74.53 9.62 75.74 9.06Q76.95 8.50 78.33 8.27Q79.71 8.04 81.08 8.04L81.08 8.04Q84.23 8.11 85.94 9.04Q87.66 9.97 88.30 11.58Q88.95 13.19 88.95 15.32L88.95 15.32L88.95 26L84.40 26L84.40 23.90Q84.02 24.53 83.18 25.11Q82.34 25.68 81.16 26.07Q79.99 26.45 78.66 26.45ZM79.61 22.50L79.61 22.50Q81.04 22.50 82.04 22.04Q83.04 21.59 83.60 20.98Q84.16 20.36 84.23 19.80L84.23 19.80Q84.33 19.35 84.38 18.79Q84.44 18.23 84.40 17.70L84.40 17.70Q84.16 17.95 83.49 18.05Q82.83 18.16 81.67 18.30L81.67 18.30L79.12 18.58Q78.03 18.72 77.56 19.17Q77.09 19.63 77.09 20.33L77.09 20.33L77.09 20.54Q77.09 21.10 77.30 21.55Q77.51 22.01 78.05 22.25Q78.59 22.50 79.61 22.50ZM108.62 19L113.49 19.63Q112.75 21.63 111.39 23.20Q110.02 24.77 107.96 25.67Q105.89 26.56 103.16 26.56L103.16 26.56Q99.38 26.56 96.86 24.98Q94.34 23.41 93.06 20.66Q91.79 17.91 91.79 14.41L91.79 14.41Q91.79 10.95 93.06 8.20Q94.34 5.45 96.86 3.86Q99.38 2.27 103.16 2.27L103.16 2.27Q105.89 2.27 107.94 3.18Q109.99 4.09 111.37 5.66Q112.75 7.24 113.49 9.23L113.49 9.23L108.62 9.86Q108.13 8.85 107.41 8.10Q106.70 7.34 105.65 6.94Q104.60 6.54 103.16 6.54L103.16 6.54Q100.78 6.54 99.33 7.54Q97.88 8.53 97.23 10.32Q96.58 12.10 96.58 14.41L96.58 14.41Q96.58 16.76 97.23 18.54Q97.88 20.33 99.33 21.33Q100.78 22.32 103.16 22.32L103.16 22.32Q104.60 22.32 105.63 21.91Q106.66 21.48 107.40 20.75Q108.13 20.02 108.62 19L108.62 19ZM125.04 26.45L125.04 26.45Q121.92 26.45 119.84 25.27Q117.76 24.07 116.72 21.99Q115.69 19.91 115.69 17.25L115.69 17.25Q115.69 14.62 116.72 12.54Q117.76 10.46 119.84 9.25Q121.92 8.04 125.04 8.04L125.04 8.04Q128.12 8.04 130.20 9.25Q132.28 10.46 133.30 12.54Q134.31 14.62 134.31 17.25L134.31 17.25Q134.31 19.91 133.30 21.99Q132.28 24.07 130.20 25.27Q128.12 26.45 125.04 26.45ZM125.04 22.32L125.04 22.32Q126.54 22.32 127.57 21.77Q128.61 21.20 129.11 20.09Q129.62 18.96 129.62 17.25L129.62 17.25Q129.62 15.57 129.11 14.45Q128.61 13.33 127.57 12.75Q126.54 12.17 125.04 12.17L125.04 12.17Q123.50 12.17 122.46 12.75Q121.43 13.33 120.91 14.45Q120.38 15.57 120.38 17.25L120.38 17.25Q120.38 18.96 120.91 20.09Q121.43 21.20 122.46 21.77Q123.50 22.32 125.04 22.32ZM142.68 26.45L142.68 26.45Q140.44 26.45 139.00 25.70Q137.57 24.95 136.90 23.73Q136.24 22.50 136.24 21.03L136.24 21.03L136.24 20.50Q136.24 19.59 136.64 18.51Q137.04 17.42 138.16 16.57Q139.28 15.71 141.45 15.50L141.45 15.50L145.58 15.08Q147.19 14.90 147.70 14.71Q148.21 14.52 148.21 13.96L148.21 13.96Q148.21 12.77 147.30 12.38Q146.39 12.00 144.71 12.00L144.71 12.00Q143.69 12.00 142.87 12.16Q142.05 12.31 141.50 12.68Q140.96 13.05 140.79 13.75L140.79 13.75L136.41 12.70Q136.80 11.40 137.67 10.51Q138.55 9.62 139.75 9.06Q140.96 8.50 142.34 8.27Q143.73 8.04 145.09 8.04L145.09 8.04Q148.24 8.11 149.96 9.04Q151.67 9.97 152.32 11.58Q152.97 13.19 152.97 15.32L152.97 15.32L152.97 26L148.42 26L148.42 23.90Q148.03 24.53 147.19 25.11Q146.35 25.68 145.18 26.07Q144.01 26.45 142.68 26.45ZM143.62 22.50L143.62 22.50Q145.06 22.50 146.05 22.04Q147.05 21.59 147.61 20.98Q148.17 20.36 148.24 19.80L148.24 19.80Q148.35 19.35 148.40 18.79Q148.45 18.23 148.42 17.70L148.42 17.70Q148.17 17.95 147.51 18.05Q146.84 18.16 145.69 18.30L145.69 18.30L143.13 18.58Q142.05 18.72 141.57 19.17Q141.10 19.63 141.10 20.33L141.10 20.33L141.10 20.54Q141.10 21.10 141.31 21.55Q141.52 22.01 142.06 22.25Q142.61 22.50 143.62 22.50ZM173.65 13.50L168.96 14.27Q168.40 13.33 167.44 12.75Q166.48 12.17 165.08 12.17L165.08 12.17Q163.71 12.17 162.71 12.77Q161.72 13.36 161.19 14.50Q160.67 15.64 160.67 17.25L160.67 17.25Q160.67 19.70 161.84 21.01Q163.01 22.32 165.08 22.32L165.08 22.32Q166.48 22.32 167.44 21.77Q168.40 21.20 168.96 20.26L168.96 20.26L173.72 20.93Q173.16 22.54 172.01 23.78Q170.85 25.02 169.12 25.74Q167.39 26.45 165.08 26.45L165.08 26.45Q162.07 26.45 160.05 25.27Q158.04 24.07 157.01 21.99Q155.98 19.91 155.98 17.25L155.98 17.25Q155.98 14.62 157.01 12.54Q158.04 10.46 160.05 9.25Q162.07 8.04 165.08 8.04L165.08 8.04Q167.39 8.04 169.10 8.74Q170.82 9.44 171.95 10.69Q173.09 11.93 173.65 13.50L173.65 13.50ZM181.04 17.32L181.00 26L176.35 26L176.35 0.52L181.00 0.52L181.00 10.74Q181.98 9.55 183.40 8.80Q184.82 8.04 186.78 8.04L186.78 8.04Q189.51 8.04 191.27 9.20Q193.04 10.35 193.90 12.37Q194.76 14.38 194.76 17.00L194.76 17.00L194.76 26L190.03 26L190.03 17.11Q190.07 15.43 189.65 14.34Q189.23 13.26 188.30 12.72Q187.37 12.17 185.94 12.17L185.94 12.17Q184.43 12.17 183.35 12.77Q182.26 13.36 181.65 14.50Q181.04 15.64 181.04 17.32L181.04 17.32Z" fill="#000000"></path></g>
        
      </svg>

      


